<?xml version="1.0" standalone="no"?>
<!DOCTYPE svg PUBLIC "-//W3C//DTD SVG 20010904//EN"
 "http://www.w3.org/TR/2001/REC-SVG-20010904/DTD/svg10.dtd">
<svg version="1.0" xmlns="http://www.w3.org/2000/svg"
 width="1000.000000pt" height="1000.000000pt" viewBox="0 0 1000.000000 1000.000000"
 preserveAspectRatio="xMidYMid meet">
<metadata>
Created by potrace 1.14, written by Peter Selinger 2001-2017
</metadata>
<g transform="translate(0.000000,1000.000000) scale(0.100000,-0.100000)"
fill="#000000" stroke="none">
<path d="M2201 9985 c-279 -51 -520 -248 -615 -505 -60 -163 -56 150 -56
-4470 0 -4620 -4 -4307 56 -4470 75 -202 262 -389 464 -464 161 -59 -5 -56
2950 -56 2955 0 2789 -3 2950 56 202 75 389 262 464 464 60 163 56 -150 56
4470 0 4620 4 4307 -56 4470 -75 202 -262 389 -464 464 -161 59 7 56 -2959 55
-2231 -1 -2729 -3 -2790 -14z m5231 -776 c187 -39 348 -200 387 -387 15 -74
15 -1430 0 -1504 -39 -187 -200 -348 -387 -387 -75 -16 -4799 -16 -4874 0
-187 39 -348 200 -387 387 -7 36 -11 280 -11 752 0 472 4 716 11 752 38 182
191 340 372 384 71 17 4808 20 4889 3z m-4075 -3076 c155 -52 282 -182 330
-338 16 -52 18 -98 18 -360 0 -262 -2 -308 -18 -360 -50 -162 -187 -298 -344
-341 -61 -17 -108 -19 -458 -19 -350 0 -397 2 -458 19 -157 43 -294 179 -344
341 -16 52 -18 98 -18 360 0 262 2 308 18 360 45 147 170 281 307 330 80 29
159 33 535 31 344 -2 374 -4 432 -23z m2110 0 c155 -52 282 -182 330 -338 16
-52 18 -98 18 -360 0 -262 -2 -308 -18 -360 -50 -162 -187 -298 -344 -341 -61
-17 -108 -19 -458 -19 -350 0 -397 2 -458 19 -157 43 -294 179 -344 341 -16
52 -18 98 -18 360 0 262 2 308 18 360 45 147 170 281 307 330 80 29 159 33
535 31 344 -2 374 -4 432 -23z m2120 0 c155 -52 282 -182 330 -338 16 -52 18
-98 18 -360 0 -262 -2 -308 -18 -360 -50 -162 -187 -298 -344 -341 -61 -17
-108 -19 -458 -19 -350 0 -397 2 -458 19 -157 43 -294 179 -344 341 -16 52
-18 98 -18 360 0 262 2 308 18 360 45 147 170 281 307 330 80 29 159 33 535
31 344 -2 374 -4 432 -23z m-4230 -1960 c155 -52 282 -182 330 -338 16 -52 18
-98 18 -360 0 -262 -2 -308 -18 -360 -50 -162 -187 -298 -344 -341 -61 -17
-108 -19 -458 -19 -350 0 -397 2 -458 19 -157 43 -294 179 -344 341 -16 52
-18 98 -18 360 0 262 2 308 18 360 45 147 170 281 307 330 80 29 159 33 535
31 344 -2 374 -4 432 -23z m2110 0 c155 -52 282 -182 330 -338 16 -52 18 -98
18 -360 0 -262 -2 -308 -18 -360 -50 -162 -187 -298 -344 -341 -61 -17 -108
-19 -458 -19 -350 0 -397 2 -458 19 -157 43 -294 179 -344 341 -16 52 -18 98
-18 360 0 262 2 308 18 360 45 147 170 281 307 330 80 29 159 33 535 31 344
-2 374 -4 432 -23z m2075 16 c187 -39 348 -200 387 -387 15 -75 15 -2539 0
-2614 -39 -187 -200 -348 -387 -387 -72 -15 -782 -15 -854 0 -187 39 -348 200
-387 387 -15 75 -15 2539 0 2614 38 182 191 340 372 384 69 16 792 19 869 3z
m-4185 -1976 c155 -52 282 -182 330 -338 16 -52 18 -98 18 -360 0 -262 -2
-308 -18 -360 -50 -162 -187 -298 -344 -341 -61 -17 -108 -19 -458 -19 -350 0
-397 2 -458 19 -157 43 -294 179 -344 341 -16 52 -18 98 -18 360 0 262 2 308
18 360 45 147 170 281 307 330 80 29 159 33 535 31 344 -2 374 -4 432 -23z
m2110 0 c155 -52 282 -182 330 -338 16 -52 18 -98 18 -360 0 -262 -2 -308 -18
-360 -50 -162 -187 -298 -344 -341 -61 -17 -108 -19 -458 -19 -350 0 -397 2
-458 19 -157 43 -294 179 -344 341 -16 52 -18 98 -18 360 0 262 2 308 18 360
45 147 170 281 307 330 80 29 159 33 535 31 344 -2 374 -4 432 -23z"/>
<path d="M3910 8844 c-14 -2 -52 -9 -85 -15 -143 -26 -311 -115 -420 -224
-106 -107 -191 -262 -237 -433 -29 -109 -36 -351 -14 -446 44 -186 175 -319
366 -372 80 -22 267 -29 389 -15 120 14 290 55 306 73 7 7 46 168 89 358 42
190 80 353 82 363 5 16 -11 17 -272 15 l-277 -3 -22 -97 c-12 -54 -20 -100
-17 -103 3 -3 70 -5 150 -5 111 0 143 -3 140 -12 -3 -7 -23 -91 -44 -186 l-39
-173 -40 -11 c-22 -7 -101 -13 -180 -13 -126 0 -145 2 -192 24 -69 31 -134
102 -163 177 -19 49 -23 78 -23 169 0 130 14 212 54 316 63 164 167 283 305
350 152 73 318 76 514 9 50 -17 93 -30 96 -28 2 2 23 46 48 98 37 79 42 96 30
103 -28 16 -130 48 -199 63 -69 15 -296 27 -345 18z"/>
<path d="M4907 8814 c-10 -33 -327 -1443 -327 -1454 0 -6 45 -10 125 -10 l124
0 9 33 c5 17 33 141 62 275 l54 242 81 0 c278 1 473 60 597 181 74 72 114 155
129 266 26 192 -42 347 -183 419 -95 48 -147 56 -414 61 -240 5 -252 4 -257
-13z m468 -205 c93 -26 144 -125 125 -243 -12 -77 -35 -120 -87 -166 -71 -62
-136 -82 -284 -88 l-127 -4 34 148 c19 82 46 200 60 263 l27 114 106 -6 c58
-4 124 -12 146 -18z"/>
<path d="M5960 8123 c-222 -390 -413 -723 -423 -740 l-19 -33 139 0 138 1 111
202 110 202 262 3 262 2 4 -22 c3 -13 12 -95 21 -183 9 -88 18 -170 21 -182 4
-22 8 -23 130 -23 l125 0 -6 33 c-2 17 -41 334 -85 702 -44 369 -83 687 -86
708 l-6 37 -147 0 -147 0 -404 -707z m556 -70 l7 -83 -197 0 -196 0 29 53
c107 190 233 428 267 500 l39 86 22 -237 c12 -130 25 -274 29 -319z"/>
</g>
</svg>
